<svg xmlns:xlink="http://www.w3.org/1999/xlink" width="74.667" xmlns="http://www.w3.org/2000/svg" height="112" id="screenshot-f22025ed-2924-807f-8002-a2aff9654955" viewBox="0 0 74.667 112" style="-webkit-print-color-adjust: exact;" fill="none" version="1.1"><g id="shape-f22025ed-2924-807f-8002-a2aff9654955" rx="0" ry="0"><g id="shape-f22025ed-2924-807f-8002-a2af748c75a7" class="svg-inline--fa fa-film fa-w-16" rx="0" ry="0" style="fill: url(&quot;#fill-0-rumext-id-2&quot;);"><defs><radialGradient id="fill-color-gradient_rumext-id-2_0" cx="0.5" cy="0.5" r="0.5" gradientTransform="matrix(-1.000000, 0.000000, -0.000000, -1.000000, 1.000000, 1.000000)"><stop offset="0" stop-color="#68c6f7" stop-opacity="1"/><stop offset="1" stop-color="#3799cc" stop-opacity="1"/></radialGradient><pattern patternUnits="userSpaceOnUse" x="0.0000022199039904080564" y="0.0000025210333660652395" height="56.00000799999998" width="74.66667200000188" data-loading="false" id="fill-0-rumext-id-2"><g><rect width="74.66667200000188" height="56.00000799999998" style="fill: url(&quot;#fill-color-gradient_rumext-id-2_0&quot;);"/></g></pattern></defs><g id="shape-f22025ed-2924-807f-8002-a2af748c75a8"><defs><radialGradient id="fill-color-gradient_rumext-id-3_0" cx="0.5" cy="0.5" r="0.5" gradientTransform="matrix(-1.000000, 0.000000, -0.000000, -1.000000, 1.000000, 1.000000)"><stop offset="0" stop-color="#68c6f7" stop-opacity="1"/><stop offset="1" stop-color="#3799cc" stop-opacity="1"/></radialGradient><pattern patternUnits="userSpaceOnUse" x="-0.10779549147923717" y="0.000006515896984637948" height="56.000000000000455" width="75.00000000000205" data-loading="false" patternTransform="matrix(1.000000, 0.000000, 0.000000, 1.000000, 0.000000, -0.000000)" id="fill-0-rumext-id-3"><g><rect width="75.00000000000205" height="56.000000000000455" style="fill: url(&quot;#fill-color-gradient_rumext-id-3_0&quot;);"/></g></pattern></defs><g class="fills" id="fills-f22025ed-2924-807f-8002-a2af748c75a8"><path fill="url(#fill-0-rumext-id-3)" rx="0" ry="0" d="M71.167,0.000L70.000,0.000L70.000,2.917C70.000,3.879,69.213,4.667,68.250,4.667L62.417,4.667C61.454,4.667,60.667,3.879,60.667,2.917L60.667,0.000L14.000,0.000L14.000,2.917C14.000,3.879,13.213,4.667,12.250,4.667L6.417,4.667C5.454,4.667,4.667,3.879,4.667,2.917L4.667,0.000L3.500,0.000C1.560,0.000,0.000,1.560,0.000,3.500L0.000,52.500C0.000,54.440,1.560,56.000,3.500,56.000L4.667,56.000L4.667,53.083C4.667,52.121,5.454,51.333,6.417,51.333L12.250,51.333C13.213,51.333,14.000,52.121,14.000,53.083L14.000,56.000L60.667,56.000L60.667,53.083C60.667,52.121,61.454,51.333,62.417,51.333L68.250,51.333C69.213,51.333,70.000,52.121,70.000,53.083L70.000,56.000L71.167,56.000C73.106,56.000,74.667,54.440,74.667,52.500L74.667,3.500C74.667,1.560,73.106,0.000,71.167,0.000ZZM14.000,44.917C14.000,45.879,13.213,46.667,12.250,46.667L6.417,46.667C5.454,46.667,4.667,45.879,4.667,44.917L4.667,39.083C4.667,38.121,5.454,37.333,6.417,37.333L12.250,37.333C13.213,37.333,14.000,38.121,14.000,39.083L14.000,44.917ZZM14.000,30.917C14.000,31.879,13.213,32.667,12.250,32.667L6.417,32.667C5.454,32.667,4.667,31.879,4.667,30.917L4.667,25.083C4.667,24.121,5.454,23.333,6.417,23.333L12.250,23.333C13.213,23.333,14.000,24.121,14.000,25.083L14.000,30.917ZZM14.000,16.917C14.000,17.879,13.213,18.667,12.250,18.667L6.417,18.667C5.454,18.667,4.667,17.879,4.667,16.917L4.667,11.083C4.667,10.121,5.454,9.333,6.417,9.333L12.250,9.333C13.213,9.333,14.000,10.121,14.000,11.083L14.000,16.917ZZM53.667,47.250C53.667,48.213,52.879,49.000,51.917,49.000L22.750,49.000C21.788,49.000,21.000,48.213,21.000,47.250L21.000,33.250C21.000,32.288,21.788,31.500,22.750,31.500L51.917,31.500C52.879,31.500,53.667,32.288,53.667,33.250L53.667,47.250ZZM53.667,22.750C53.667,23.713,52.879,24.500,51.917,24.500L22.750,24.500C21.788,24.500,21.000,23.713,21.000,22.750L21.000,8.750C21.000,7.788,21.788,7.000,22.750,7.000L51.917,7.000C52.879,7.000,53.667,7.788,53.667,8.750L53.667,22.750ZZM70.000,44.917C70.000,45.879,69.213,46.667,68.250,46.667L62.417,46.667C61.454,46.667,60.667,45.879,60.667,44.917L60.667,39.083C60.667,38.121,61.454,37.333,62.417,37.333L68.250,37.333C69.213,37.333,70.000,38.121,70.000,39.083L70.000,44.917ZZM70.000,30.917C70.000,31.879,69.213,32.667,68.250,32.667L62.417,32.667C61.454,32.667,60.667,31.879,60.667,30.917L60.667,25.083C60.667,24.121,61.454,23.333,62.417,23.333L68.250,23.333C69.213,23.333,70.000,24.121,70.000,25.083L70.000,30.917ZZM70.000,16.917C70.000,17.879,69.213,18.667,68.250,18.667L62.417,18.667C61.454,18.667,60.667,17.879,60.667,16.917L60.667,11.083C60.667,10.121,61.454,9.333,62.417,9.333L68.250,9.333C69.213,9.333,70.000,10.121,70.000,11.083L70.000,16.917ZZ"/></g></g></g><g id="shape-f22025ed-2924-807f-8002-a2af7f162a3b" class="svg-inline--fa fa-film fa-w-16" rx="0" ry="0" style="fill: url(&quot;#fill-0-rumext-id-4&quot;);"><defs><radialGradient id="fill-color-gradient_rumext-id-4_0" cx="0.5" cy="0.5" r="0.5" gradientTransform="matrix(-1.000000, 0.000000, -0.000000, -1.000000, 1.000000, 1.000000)"><stop offset="0" stop-color="#68c6f7" stop-opacity="1"/><stop offset="1" stop-color="#3799cc" stop-opacity="1"/></radialGradient><pattern patternUnits="userSpaceOnUse" x="0.0000022199039904080564" y="56.000002521033366" height="56.00000799999998" width="74.66667200000188" data-loading="false" id="fill-0-rumext-id-4"><g><rect width="74.66667200000188" height="56.00000799999998" style="fill: url(&quot;#fill-color-gradient_rumext-id-4_0&quot;);"/></g></pattern></defs><g id="shape-f22025ed-2924-807f-8002-a2af7f162a3c"><defs><radialGradient id="fill-color-gradient_rumext-id-5_0" cx="0.5" cy="0.5" r="0.5" gradientTransform="matrix(-1.000000, 0.000000, -0.000000, -1.000000, 1.000000, 1.000000)"><stop offset="0" stop-color="#68c6f7" stop-opacity="1"/><stop offset="1" stop-color="#3799cc" stop-opacity="1"/></radialGradient><pattern patternUnits="userSpaceOnUse" x="-0.10779549147923717" y="56.000006515896985" height="56.000000000000455" width="75.00000000000205" data-loading="false" patternTransform="matrix(1.000000, 0.000000, 0.000000, 1.000000, 0.000000, -0.000000)" id="fill-0-rumext-id-5"><g><rect width="75.00000000000205" height="56.000000000000455" style="fill: url(&quot;#fill-color-gradient_rumext-id-5_0&quot;);"/></g></pattern></defs><g class="fills" id="fills-f22025ed-2924-807f-8002-a2af7f162a3c"><path fill="url(#fill-0-rumext-id-5)" rx="0" ry="0" d="M71.167,56.000L70.000,56.000L70.000,58.917C70.000,59.879,69.213,60.667,68.250,60.667L62.417,60.667C61.454,60.667,60.667,59.879,60.667,58.917L60.667,56.000L14.000,56.000L14.000,58.917C14.000,59.879,13.213,60.667,12.250,60.667L6.417,60.667C5.454,60.667,4.667,59.879,4.667,58.917L4.667,56.000L3.500,56.000C1.560,56.000,0.000,57.560,0.000,59.500L0.000,108.500C0.000,110.440,1.560,112.000,3.500,112.000L4.667,112.000L4.667,109.083C4.667,108.121,5.454,107.333,6.417,107.333L12.250,107.333C13.213,107.333,14.000,108.121,14.000,109.083L14.000,112.000L60.667,112.000L60.667,109.083C60.667,108.121,61.454,107.333,62.417,107.333L68.250,107.333C69.213,107.333,70.000,108.121,70.000,109.083L70.000,112.000L71.167,112.000C73.106,112.000,74.667,110.440,74.667,108.500L74.667,59.500C74.667,57.560,73.106,56.000,71.167,56.000ZZM14.000,100.917C14.000,101.879,13.213,102.667,12.250,102.667L6.417,102.667C5.454,102.667,4.667,101.879,4.667,100.917L4.667,95.083C4.667,94.121,5.454,93.333,6.417,93.333L12.250,93.333C13.213,93.333,14.000,94.121,14.000,95.083L14.000,100.917ZZM14.000,86.917C14.000,87.879,13.213,88.667,12.250,88.667L6.417,88.667C5.454,88.667,4.667,87.879,4.667,86.917L4.667,81.083C4.667,80.121,5.454,79.333,6.417,79.333L12.250,79.333C13.213,79.333,14.000,80.121,14.000,81.083L14.000,86.917ZZM14.000,72.917C14.000,73.879,13.213,74.667,12.250,74.667L6.417,74.667C5.454,74.667,4.667,73.879,4.667,72.917L4.667,67.083C4.667,66.121,5.454,65.333,6.417,65.333L12.250,65.333C13.213,65.333,14.000,66.121,14.000,67.083L14.000,72.917ZZM53.667,103.250C53.667,104.213,52.879,105.000,51.917,105.000L22.750,105.000C21.788,105.000,21.000,104.213,21.000,103.250L21.000,89.250C21.000,88.288,21.788,87.500,22.750,87.500L51.917,87.500C52.879,87.500,53.667,88.288,53.667,89.250L53.667,103.250ZZM53.667,78.750C53.667,79.713,52.879,80.500,51.917,80.500L22.750,80.500C21.788,80.500,21.000,79.713,21.000,78.750L21.000,64.750C21.000,63.788,21.788,63.000,22.750,63.000L51.917,63.000C52.879,63.000,53.667,63.788,53.667,64.750L53.667,78.750ZZM70.000,100.917C70.000,101.879,69.213,102.667,68.250,102.667L62.417,102.667C61.454,102.667,60.667,101.879,60.667,100.917L60.667,95.083C60.667,94.121,61.454,93.333,62.417,93.333L68.250,93.333C69.213,93.333,70.000,94.121,70.000,95.083L70.000,100.917ZZM70.000,86.917C70.000,87.879,69.213,88.667,68.250,88.667L62.417,88.667C61.454,88.667,60.667,87.879,60.667,86.917L60.667,81.083C60.667,80.121,61.454,79.333,62.417,79.333L68.250,79.333C69.213,79.333,70.000,80.121,70.000,81.083L70.000,86.917ZZM70.000,72.917C70.000,73.879,69.213,74.667,68.250,74.667L62.417,74.667C61.454,74.667,60.667,73.879,60.667,72.917L60.667,67.083C60.667,66.121,61.454,65.333,62.417,65.333L68.250,65.333C69.213,65.333,70.000,66.121,70.000,67.083L70.000,72.917ZZ"/></g></g></g></g></svg>