<svg xmlns="http://www.w3.org/2000/svg" width="1427.089" height="45.591" fill="none" style="-webkit-print-color-adjust:exact" viewBox="-3569.513 615.409 1427.089 45.591"><path d="M-3568.513 637.125s78.254-20.102 155.479-20.102c131.797 0 169.961 22.579 233.141 22.579 108.114 0 138.568-20.602 208.585-20.602s108.708 24.364 233.297 24.364c124.59 0 120.889-41.736 251.098-21.341 112.234 17.579 187.035 21.341 264.467 7.579 83.13-14.774 78.988 18.318 78.988 18.318V650l-1425.055 10v-22.875Z" style="fill:#fff;fill-opacity:1"/><path d="M-3568.513 637.125s78.254-20.102 155.479-20.102c131.797 0 169.961 22.579 233.141 22.579 108.114 0 138.568-20.602 208.585-20.602s108.708 24.364 233.297 24.364c124.59 0 120.889-41.736 251.098-21.341 112.234 17.579 187.035 21.341 264.467 7.579 83.13-14.774 78.988 18.318 78.988 18.318V650l-1425.055 10v-22.875Z" class="stroke-shape" style="fill:none"/></svg>